<?xml version="1.0" encoding="utf-8"?>
<!-- Generator: Adobe Illustrator 17.0.0, SVG Export Plug-In . SVG Version: 6.00 Build 0)  -->
<!DOCTYPE svg PUBLIC "-//W3C//DTD SVG 1.1//EN" "http://www.w3.org/Graphics/SVG/1.1/DTD/svg11.dtd">
<svg version="1.1" id="Layer_1" xmlns="http://www.w3.org/2000/svg" xmlns:xlink="http://www.w3.org/1999/xlink" x="0px" y="0px"
	 width="2810.526px" height="1114.384px" viewBox="0 0 2810.526 1114.384" enable-background="new 0 0 2810.526 1114.384"
	 xml:space="preserve">
<polygon fill="#F47357" points="1420.588,791.029 2121.229,886.045 2680.01,967.353 1898.748,510.109 "/>
<polygon fill="#C01749" points="1270.468,0 1033.273,0 1151.787,69.706 "/>
<polygon fill="#D03662" points="1149.813,70.865 1029.327,0 536.248,0 903.358,215.618 "/>
<polygon fill="#E9635D" points="1647.918,363.307 1013.625,735.839 1417.38,790.594 1896.77,508.951 "/>
<polygon fill="#C01749" points="532.299,0 0,0 0,598.378 204.462,626.106 901.383,216.777 "/>
<polygon fill="#D4426B" points="903.358,217.937 207.67,626.541 605.652,680.512 1148.573,361.962 "/>
<polygon fill="#DE5264" points="1646.845,71.926 608.862,680.948 1010.416,735.404 1893.463,216.774 "/>
<polygon fill="#E9635D" points="1649.894,362.146 2685.28,968.12 2810.526,986.345 2810.526,755.399 1895.438,217.934 "/>
<polygon fill="#DB485A" points="1895.438,215.614 2262.554,0 1769.432,0 1648.821,70.767 "/>
<polygon fill="#DB485A" points="1150.548,360.802 1765.48,0 1274.417,0 905.332,216.777 "/>
<polygon fill="#E75953" points="2810.526,753.08 2810.526,0 2266.503,0 1897.412,216.774 "/>
<g>
	<polygon fill="none" points="0,598.378 0,599.339 2114.14,886.045 2803.437,986.345 2810.526,987.376 2810.526,986.345 
		2121.229,886.045 	"/>
	<polygon fill="#FFFFFF" points="2803.437,986.345 2114.14,886.045 0,599.339 0,1113.633 2130.497,1114.772 2810.526,1118.529 
		2810.526,987.376 	"/>
	<polygon opacity="0.1" points="2121.229,886.045 2810.526,986.345 2810.526,759.856 2121.229,659.557 0,371.889 0,598.378 	"/>
</g>
</svg>
