<?xml version="1.0" encoding="utf-8"?>
<!-- Generator: Adobe Illustrator 18.0.0, SVG Export Plug-In . SVG Version: 6.00 Build 0)  -->
<!DOCTYPE svg PUBLIC "-//W3C//DTD SVG 1.1//EN" "http://www.w3.org/Graphics/SVG/1.1/DTD/svg11.dtd">
<svg version="1.1" id="Layer_1" xmlns="http://www.w3.org/2000/svg" xmlns:xlink="http://www.w3.org/1999/xlink" x="0px" y="0px"
	 viewBox="0 0 2810.5 1114.4" enable-background="new 0 0 2810.5 1114.4" xml:space="preserve">
<polygon fill="#54A5C8" points="1420.6,791 2121.2,886 2680,967.4 1898.7,510.1 "/>
<polygon fill="#447DE6" points="1270.5,0 1033.3,0 1151.8,69.7 "/>
<polygon fill="#447DE6" points="1149.8,70.9 1029.3,0 536.2,0 903.4,215.6 "/>
<polygon fill="#5CA1D5" points="1647.9,363.3 1013.6,735.8 1417.4,790.6 1896.8,509 "/>
<polygon fill="#3F8ECC" points="532.3,0 0,0 0,598.4 204.5,626.1 901.4,216.8 "/>
<polygon fill="#5CA1D5" points="903.4,217.9 207.7,626.5 605.7,680.5 1148.6,362 "/>
<polygon fill="#3F8ECC" points="1646.8,71.9 608.9,680.9 1010.4,735.4 1893.5,216.8 "/>
<polygon fill="#54A5C8" points="1649.9,362.1 2685.3,968.1 2810.5,986.3 2810.5,755.4 1895.4,217.9 "/>
<polygon fill="#3F8ECC" points="1895.4,215.6 2262.6,0 1769.4,0 1648.8,70.8 "/>
<polygon fill="#3F8ECC" points="1150.5,360.8 1765.5,0 1274.4,0 905.3,216.8 "/>
<polygon fill="#3F8ECC" points="2810.5,753.1 2810.5,0 2266.5,0 1897.4,216.8 "/>
<g>
	<polygon fill="none" points="0,598.4 0,599.3 2114.1,886 2803.4,986.3 2810.5,987.4 2810.5,986.3 2121.2,886 	"/>
	<polygon fill="#FFFFFF" points="2803.4,986.3 2114.1,886 0,599.3 0,1113.6 2130.5,1114.8 2810.5,1118.5 2810.5,987.4 	"/>
	<polygon opacity="0.1" points="2121.2,886 2810.5,986.3 2810.5,759.9 2121.2,659.6 0,371.9 0,598.4 	"/>
</g>
</svg>
